<svg xmlns="http://www.w3.org/2000/svg" xmlns:xlink="http://www.w3.org/1999/xlink" width="1080" zoomAndPan="magnify" viewBox="0 0 810 809.999993" height="1080" preserveAspectRatio="xMidYMid meet" version="1.0"><rect x="-81" width="972" fill="#ffffff" y="-80.999999" height="971.999992" fill-opacity="1"/><rect x="-81" width="972" fill="#ffffff" y="-80.999999" height="971.999992" fill-opacity="1"/><path fill="#f2aa27" d="M 809.890625 404.945312 C 809.890625 411.574219 809.730469 418.195312 809.402344 424.816406 C 809.078125 431.433594 808.589844 438.042969 807.941406 444.636719 C 807.292969 451.234375 806.480469 457.808594 805.507812 464.363281 C 804.535156 470.917969 803.402344 477.445312 802.109375 483.945312 C 800.816406 490.445312 799.367188 496.910156 797.757812 503.339844 C 796.144531 509.769531 794.378906 516.152344 792.453125 522.496094 C 790.53125 528.835938 788.453125 535.128906 786.21875 541.367188 C 783.988281 547.609375 781.601562 553.789062 779.066406 559.910156 C 776.53125 566.035156 773.847656 572.089844 771.011719 578.082031 C 768.179688 584.074219 765.199219 589.992188 762.078125 595.835938 C 758.953125 601.679688 755.6875 607.445312 752.28125 613.128906 C 748.871094 618.8125 745.328125 624.410156 741.644531 629.921875 C 737.964844 635.433594 734.148438 640.847656 730.203125 646.171875 C 726.253906 651.496094 722.175781 656.71875 717.972656 661.839844 C 713.769531 666.964844 709.441406 671.980469 704.992188 676.890625 C 700.539062 681.800781 695.972656 686.601562 691.285156 691.285156 C 686.601562 695.972656 681.800781 700.539062 676.890625 704.992188 C 671.980469 709.441406 666.964844 713.769531 661.839844 717.972656 C 656.71875 722.175781 651.496094 726.253906 646.171875 730.203125 C 640.847656 734.148438 635.433594 737.964844 629.921875 741.644531 C 624.410156 745.328125 618.8125 748.871094 613.128906 752.28125 C 607.445312 755.6875 601.679688 758.953125 595.835938 762.078125 C 589.992188 765.199219 584.074219 768.179688 578.082031 771.011719 C 572.089844 773.847656 566.035156 776.53125 559.910156 779.066406 C 553.789062 781.601562 547.609375 783.988281 541.367188 786.21875 C 535.128906 788.453125 528.835938 790.53125 522.496094 792.453125 C 516.152344 794.378906 509.769531 796.144531 503.339844 797.757812 C 496.910156 799.367188 490.445312 800.816406 483.945312 802.109375 C 477.445312 803.402344 470.917969 804.535156 464.363281 805.507812 C 457.808594 806.480469 451.234375 807.292969 444.636719 807.941406 C 438.042969 808.589844 431.433594 809.078125 424.816406 809.402344 C 418.195312 809.730469 411.574219 809.890625 404.945312 809.890625 C 398.320312 809.890625 391.695312 809.730469 385.078125 809.402344 C 378.457031 809.078125 371.851562 808.589844 365.253906 807.941406 C 358.660156 807.292969 352.082031 806.480469 345.527344 805.507812 C 338.972656 804.535156 332.445312 803.402344 325.945312 802.109375 C 319.445312 800.816406 312.980469 799.367188 306.550781 797.757812 C 300.125 796.144531 293.738281 794.378906 287.394531 792.453125 C 281.054688 790.53125 274.761719 788.453125 268.523438 786.21875 C 262.285156 783.988281 256.101562 781.601562 249.980469 779.066406 C 243.855469 776.53125 237.800781 773.847656 231.808594 771.011719 C 225.816406 768.179688 219.902344 765.199219 214.054688 762.078125 C 208.210938 758.953125 202.445312 755.6875 196.761719 752.28125 C 191.078125 748.871094 185.480469 745.328125 179.96875 741.644531 C 174.460938 737.964844 169.042969 734.148438 163.71875 730.203125 C 158.398438 726.253906 153.175781 722.175781 148.050781 717.972656 C 142.929688 713.769531 137.910156 709.441406 133 704.992188 C 128.089844 700.539062 123.292969 695.972656 118.605469 691.285156 C 113.917969 686.601562 109.351562 681.800781 104.902344 676.890625 C 100.449219 671.980469 96.121094 666.964844 91.917969 661.839844 C 87.714844 656.71875 83.636719 651.496094 79.691406 646.171875 C 75.742188 640.847656 71.925781 635.433594 68.246094 629.921875 C 64.5625 624.410156 61.019531 618.8125 57.613281 613.128906 C 54.207031 607.445312 50.941406 601.679688 47.816406 595.835938 C 44.691406 589.992188 41.710938 584.074219 38.878906 578.082031 C 36.046875 572.089844 33.359375 566.035156 30.824219 559.910156 C 28.289062 553.789062 25.902344 547.609375 23.671875 541.367188 C 21.4375 535.128906 19.359375 528.835938 17.4375 522.496094 C 15.511719 516.152344 13.746094 509.769531 12.136719 503.339844 C 10.527344 496.910156 9.074219 490.445312 7.78125 483.945312 C 6.488281 477.445312 5.355469 470.917969 4.382812 464.363281 C 3.410156 457.808594 2.597656 451.234375 1.949219 444.636719 C 1.300781 438.042969 0.8125 431.433594 0.488281 424.816406 C 0.164062 418.195312 0 411.574219 0 404.945312 C 0 398.320312 0.164062 391.695312 0.488281 385.078125 C 0.8125 378.457031 1.300781 371.851562 1.949219 365.253906 C 2.597656 358.660156 3.410156 352.082031 4.382812 345.527344 C 5.355469 338.972656 6.488281 332.445312 7.78125 325.945312 C 9.074219 319.445312 10.527344 312.980469 12.136719 306.550781 C 13.746094 300.125 15.511719 293.738281 17.4375 287.394531 C 19.359375 281.054688 21.4375 274.761719 23.671875 268.523438 C 25.902344 262.285156 28.289062 256.101562 30.824219 249.980469 C 33.359375 243.855469 36.046875 237.800781 38.878906 231.808594 C 41.710938 225.816406 44.691406 219.902344 47.816406 214.054688 C 50.941406 208.210938 54.207031 202.445312 57.613281 196.761719 C 61.019531 191.078125 64.5625 185.480469 68.246094 179.96875 C 71.925781 174.460938 75.742188 169.042969 79.691406 163.71875 C 83.636719 158.398438 87.714844 153.175781 91.917969 148.050781 C 96.121094 142.929688 100.449219 137.910156 104.902344 133 C 109.351562 128.089844 113.917969 123.292969 118.605469 118.605469 C 123.292969 113.917969 128.089844 109.351562 133 104.902344 C 137.910156 100.449219 142.929688 96.121094 148.050781 91.917969 C 153.175781 87.714844 158.398438 83.636719 163.71875 79.691406 C 169.042969 75.742188 174.460938 71.925781 179.96875 68.246094 C 185.480469 64.5625 191.078125 61.019531 196.761719 57.613281 C 202.445312 54.207031 208.210938 50.941406 214.054688 47.816406 C 219.902344 44.691406 225.816406 41.710938 231.808594 38.878906 C 237.800781 36.046875 243.855469 33.359375 249.980469 30.824219 C 256.101562 28.289062 262.285156 25.902344 268.523438 23.671875 C 274.761719 21.4375 281.054688 19.359375 287.394531 17.4375 C 293.738281 15.511719 300.125 13.746094 306.550781 12.136719 C 312.980469 10.527344 319.445312 9.074219 325.945312 7.78125 C 332.445312 6.488281 338.972656 5.355469 345.527344 4.382812 C 352.082031 3.410156 358.660156 2.597656 365.253906 1.949219 C 371.851562 1.300781 378.457031 0.8125 385.078125 0.488281 C 391.695312 0.164062 398.320312 0 404.945312 0 C 411.574219 0 418.195312 0.164062 424.816406 0.488281 C 431.433594 0.8125 438.042969 1.300781 444.636719 1.949219 C 451.234375 2.597656 457.808594 3.410156 464.363281 4.382812 C 470.917969 5.355469 477.445312 6.488281 483.945312 7.78125 C 490.445312 9.074219 496.910156 10.527344 503.339844 12.136719 C 509.769531 13.746094 516.152344 15.511719 522.496094 17.4375 C 528.835938 19.359375 535.128906 21.4375 541.367188 23.671875 C 547.609375 25.902344 553.789062 28.289062 559.910156 30.824219 C 566.035156 33.359375 572.089844 36.046875 578.082031 38.878906 C 584.074219 41.710938 589.992188 44.691406 595.835938 47.816406 C 601.679688 50.941406 607.445312 54.207031 613.128906 57.613281 C 618.8125 61.019531 624.410156 64.5625 629.921875 68.246094 C 635.433594 71.925781 640.847656 75.742188 646.171875 79.691406 C 651.496094 83.636719 656.71875 87.714844 661.839844 91.917969 C 666.964844 96.121094 671.980469 100.449219 676.890625 104.902344 C 681.800781 109.351562 686.601562 113.917969 691.285156 118.605469 C 695.972656 123.292969 700.539062 128.089844 704.992188 133 C 709.441406 137.910156 713.769531 142.929688 717.972656 148.050781 C 722.175781 153.175781 726.253906 158.398438 730.203125 163.71875 C 734.148438 169.042969 737.964844 174.460938 741.644531 179.96875 C 745.328125 185.480469 748.871094 191.078125 752.28125 196.761719 C 755.6875 202.445312 758.953125 208.210938 762.078125 214.054688 C 765.199219 219.902344 768.179688 225.816406 771.011719 231.808594 C 773.847656 237.800781 776.53125 243.855469 779.066406 249.980469 C 781.601562 256.101562 783.988281 262.285156 786.21875 268.523438 C 788.453125 274.761719 790.53125 281.054688 792.453125 287.394531 C 794.378906 293.738281 796.144531 300.125 797.757812 306.550781 C 799.367188 312.980469 800.816406 319.445312 802.109375 325.945312 C 803.402344 332.445312 804.535156 338.972656 805.507812 345.527344 C 806.480469 352.082031 807.292969 358.660156 807.941406 365.253906 C 808.589844 371.851562 809.078125 378.457031 809.402344 385.078125 C 809.730469 391.695312 809.890625 398.320312 809.890625 404.945312 Z M 809.890625 404.945312 " fill-opacity="1" fill-rule="nonzero"/><path fill="#000000" d="M 433.554688 537.375 L 376.328125 537.375 C 372.640625 537.375 369.660156 534.390625 369.660156 530.707031 C 369.660156 527.019531 372.640625 524.035156 376.328125 524.035156 L 433.554688 524.035156 C 437.242188 524.035156 440.222656 527.019531 440.222656 530.707031 C 440.222656 534.390625 437.242188 537.375 433.554688 537.375 Z M 442.699219 622.988281 L 442.699219 573.632812 L 367.191406 573.632812 L 367.191406 622.988281 Z M 456.035156 573.632812 L 456.035156 622.988281 L 489.863281 622.988281 C 493.550781 622.988281 496.535156 625.96875 496.535156 629.65625 C 496.535156 633.34375 493.550781 636.324219 489.863281 636.324219 L 320.027344 636.324219 C 316.339844 636.324219 313.359375 633.34375 313.359375 629.65625 C 313.359375 625.96875 316.339844 622.988281 320.027344 622.988281 L 353.855469 622.988281 L 353.855469 573.632812 L 196.476562 573.632812 C 176.957031 573.632812 161.066406 557.75 161.066406 538.222656 L 161.066406 208.976562 C 161.066406 189.445312 176.949219 173.566406 196.476562 173.566406 L 613.414062 173.566406 C 632.941406 173.566406 648.824219 189.445312 648.824219 208.976562 L 648.824219 538.222656 C 648.824219 557.75 632.941406 573.632812 613.414062 573.632812 Z M 514.996094 346.75 L 491.292969 346.75 C 487.609375 346.75 484.625 343.765625 484.625 340.078125 L 484.625 331.097656 C 481.613281 330.125 478.699219 328.914062 475.878906 327.464844 L 469.527344 333.820312 C 466.925781 336.421875 462.695312 336.421875 460.09375 333.820312 L 443.339844 317.0625 C 440.738281 314.464844 440.738281 310.234375 443.339844 307.632812 L 449.691406 301.277344 C 448.253906 298.457031 447.042969 295.542969 446.0625 292.53125 L 437.078125 292.535156 C 433.390625 292.535156 430.410156 289.550781 430.410156 285.863281 L 430.410156 262.164062 C 430.410156 258.476562 433.390625 255.492188 437.078125 255.492188 L 446.0625 255.496094 C 447.035156 252.484375 448.242188 249.570312 449.691406 246.75 L 443.339844 240.394531 C 440.738281 237.792969 440.738281 233.566406 443.339844 230.964844 L 460.09375 214.207031 C 462.660156 211.640625 466.960938 211.640625 469.527344 214.207031 L 475.878906 220.5625 C 478.699219 219.121094 481.613281 217.914062 484.625 216.929688 L 484.625 207.949219 C 484.625 204.261719 487.605469 201.277344 491.292969 201.277344 L 514.996094 201.277344 C 518.683594 201.277344 521.664062 204.261719 521.664062 207.949219 L 521.664062 216.929688 C 524.675781 217.902344 527.589844 219.113281 530.410156 220.550781 L 536.765625 214.199219 C 539.332031 211.628906 543.628906 211.628906 546.195312 214.199219 L 562.953125 230.953125 C 565.554688 233.554688 565.554688 237.785156 562.953125 240.386719 L 556.597656 246.738281 C 558.035156 249.558594 559.246094 252.472656 560.226562 255.484375 L 569.210938 255.484375 C 572.898438 255.484375 575.878906 258.464844 575.878906 262.152344 L 575.878906 285.863281 C 575.878906 289.550781 572.898438 292.535156 569.210938 292.535156 L 560.226562 292.535156 C 559.257812 295.542969 558.046875 298.457031 556.609375 301.277344 L 562.960938 307.632812 C 565.5625 310.234375 565.5625 314.464844 562.960938 317.0625 L 546.203125 333.820312 C 543.605469 336.421875 539.375 336.421875 536.773438 333.820312 L 530.417969 327.46875 C 527.597656 328.90625 524.683594 330.117188 521.675781 331.097656 L 521.675781 340.082031 C 521.664062 343.757812 518.683594 346.75 514.996094 346.75 Z M 497.972656 333.410156 L 508.335938 333.410156 L 508.335938 326.019531 C 508.335938 322.902344 510.488281 320.207031 513.527344 319.511719 C 518.65625 318.351562 523.523438 316.332031 527.980469 313.519531 C 530.621094 311.863281 534.050781 312.242188 536.25 314.445312 L 541.480469 319.675781 L 548.804688 312.347656 L 543.574219 307.117188 C 541.375 304.917969 540.992188 301.480469 542.652344 298.847656 C 545.460938 294.382812 547.480469 289.523438 548.644531 284.386719 C 549.328125 281.347656 552.035156 279.195312 555.148438 279.195312 L 562.542969 279.195312 L 562.542969 268.832031 L 555.148438 268.832031 C 552.035156 268.832031 549.339844 266.679688 548.644531 263.640625 C 547.480469 258.515625 545.460938 253.644531 542.652344 249.179688 C 540.992188 246.539062 541.375 243.109375 543.574219 240.910156 L 548.804688 235.679688 L 541.480469 228.351562 L 536.25 233.582031 C 534.050781 235.785156 530.609375 236.164062 527.980469 234.507812 C 523.523438 231.695312 518.652344 229.675781 513.527344 228.515625 C 510.488281 227.828125 508.335938 225.125 508.335938 222.007812 L 508.335938 214.617188 L 497.972656 214.617188 L 497.972656 222.007812 C 497.972656 225.125 495.820312 227.820312 492.78125 228.515625 C 487.65625 229.675781 482.785156 231.695312 478.320312 234.507812 C 475.679688 236.164062 472.25 235.785156 470.050781 233.582031 L 464.820312 228.351562 L 457.492188 235.679688 L 462.722656 240.910156 C 464.925781 243.109375 465.304688 246.550781 463.648438 249.179688 C 460.835938 253.644531 458.816406 258.503906 457.65625 263.640625 C 456.96875 266.679688 454.265625 268.832031 451.148438 268.832031 L 443.757812 268.832031 L 443.757812 279.195312 L 451.148438 279.195312 C 454.265625 279.195312 456.960938 281.347656 457.65625 284.386719 C 458.816406 289.515625 460.839844 294.382812 463.648438 298.839844 C 465.304688 301.480469 464.925781 304.910156 462.722656 307.109375 L 457.492188 312.339844 L 464.820312 319.664062 L 470.050781 314.433594 C 472.25 312.234375 475.691406 311.851562 478.320312 313.511719 C 482.789062 316.320312 487.644531 318.339844 492.78125 319.503906 C 495.820312 320.1875 497.972656 322.894531 497.972656 326.007812 Z M 503.15625 315.882812 C 480.070312 315.882812 461.296875 297.105469 461.296875 274.023438 C 461.296875 250.941406 480.070312 232.164062 503.15625 232.164062 C 526.238281 232.164062 545.015625 250.941406 545.015625 274.023438 C 545.015625 297.097656 526.238281 315.882812 503.15625 315.882812 Z M 503.15625 245.492188 C 487.425781 245.492188 474.632812 258.285156 474.632812 274.011719 C 474.632812 289.742188 487.425781 302.535156 503.15625 302.535156 C 518.882812 302.535156 531.675781 289.742188 531.675781 274.011719 C 531.675781 258.285156 518.882812 245.492188 503.15625 245.492188 Z M 355.761719 476.472656 L 320.761719 476.472656 C 317.074219 476.472656 314.09375 473.488281 314.09375 469.800781 L 314.09375 454.179688 C 308.300781 452.472656 302.71875 450.160156 297.402344 447.261719 L 286.351562 458.3125 C 283.785156 460.878906 279.488281 460.878906 276.917969 458.3125 L 252.171875 433.5625 C 249.570312 430.964844 249.570312 426.734375 252.171875 424.132812 L 263.21875 413.082031 C 260.324219 407.777344 258.007812 402.191406 256.304688 396.402344 L 240.691406 396.402344 C 237.003906 396.402344 234.023438 393.417969 234.023438 389.730469 L 234.023438 354.730469 C 234.023438 351.046875 237.003906 348.0625 240.691406 348.0625 L 256.3125 348.0625 C 258.019531 342.269531 260.335938 336.6875 263.230469 331.382812 L 252.179688 320.332031 C 249.613281 317.765625 249.613281 313.46875 252.179688 310.902344 L 276.929688 286.152344 C 279.53125 283.550781 283.757812 283.550781 286.359375 286.152344 L 297.410156 297.203125 C 302.71875 294.304688 308.300781 291.992188 314.09375 290.285156 L 314.09375 274.664062 C 314.09375 270.976562 317.074219 267.992188 320.761719 267.992188 L 355.769531 267.992188 C 359.457031 267.992188 362.4375 270.976562 362.4375 274.660156 L 362.4375 290.285156 C 368.230469 291.992188 373.8125 294.304688 379.128906 297.203125 L 390.179688 286.152344 C 392.746094 283.585938 397.042969 283.585938 399.609375 286.152344 L 424.359375 310.902344 C 426.960938 313.5 426.960938 317.730469 424.359375 320.332031 L 413.308594 331.382812 C 416.207031 336.6875 418.519531 342.269531 420.226562 348.074219 L 435.839844 348.074219 C 439.527344 348.074219 442.507812 351.054688 442.507812 354.742188 L 442.507812 389.75 C 442.507812 393.4375 439.527344 396.421875 435.839844 396.421875 L 420.226562 396.417969 C 418.519531 402.210938 416.207031 407.792969 413.308594 413.101562 L 424.359375 424.152344 C 426.960938 426.753906 426.960938 430.980469 424.359375 433.582031 L 399.609375 458.332031 C 397.042969 460.898438 392.746094 460.898438 390.179688 458.332031 L 379.128906 447.28125 C 373.824219 450.179688 368.242188 452.492188 362.4375 454.199219 L 362.4375 469.8125 C 362.429688 473.480469 359.449219 476.472656 355.761719 476.472656 Z M 327.429688 463.132812 L 349.09375 463.132812 L 349.09375 449.035156 C 349.09375 445.917969 351.246094 443.222656 354.285156 442.527344 C 362.210938 440.726562 369.726562 437.613281 376.632812 433.257812 C 379.273438 431.601562 382.703125 431.980469 384.902344 434.183594 L 394.875 444.15625 L 410.195312 428.839844 L 400.222656 418.863281 C 398.019531 416.664062 397.628906 413.222656 399.296875 410.59375 C 403.640625 403.699219 406.765625 396.179688 408.558594 388.246094 C 409.242188 385.207031 411.949219 383.054688 415.0625 383.054688 L 429.164062 383.054688 L 429.164062 361.382812 L 415.0625 361.382812 C 411.949219 361.382812 409.253906 359.230469 408.554688 356.1875 C 406.753906 348.261719 403.640625 340.746094 399.285156 333.839844 C 397.628906 331.203125 398.011719 327.773438 400.210938 325.570312 L 410.1875 315.597656 L 394.867188 300.277344 L 384.890625 310.253906 C 382.691406 312.453125 379.253906 312.84375 376.625 311.175781 C 369.726562 306.832031 362.210938 303.71875 354.273438 301.917969 C 351.234375 301.230469 349.082031 298.527344 349.082031 295.410156 L 349.082031 281.3125 L 327.410156 281.3125 L 327.410156 295.410156 C 327.410156 298.527344 325.257812 301.222656 322.21875 301.917969 C 314.292969 303.71875 306.777344 306.832031 299.867188 311.175781 C 297.230469 312.835938 293.800781 312.453125 291.597656 310.253906 L 281.625 300.277344 L 266.308594 315.597656 L 276.28125 325.570312 C 278.480469 327.773438 278.871094 331.210938 277.207031 333.839844 C 272.859375 340.738281 269.738281 348.261719 267.9375 356.1875 C 267.25 359.226562 264.542969 361.382812 261.429688 361.382812 L 247.328125 361.382812 L 247.328125 383.046875 L 261.429688 383.046875 C 264.542969 383.046875 267.242188 385.199219 267.9375 388.238281 C 269.738281 396.164062 272.851562 403.679688 277.207031 410.585938 C 278.863281 413.226562 278.480469 416.65625 276.28125 418.855469 L 266.308594 428.828125 L 281.625 444.148438 L 291.601562 434.171875 C 293.800781 431.972656 297.238281 431.59375 299.867188 433.25 C 306.765625 437.59375 314.28125 440.707031 322.21875 442.507812 C 325.257812 443.195312 327.410156 445.902344 327.410156 449.015625 L 327.410156 463.132812 Z M 338.261719 430.878906 C 305.917969 430.878906 279.605469 404.566406 279.605469 372.222656 C 279.605469 339.878906 305.917969 313.566406 338.261719 313.566406 C 370.601562 313.566406 396.914062 339.878906 396.914062 372.222656 C 396.914062 404.566406 370.601562 430.878906 338.261719 430.878906 Z M 338.261719 326.90625 C 313.273438 326.90625 292.941406 347.234375 292.941406 372.222656 C 292.941406 397.210938 313.273438 417.539062 338.261719 417.539062 C 363.25 417.539062 383.578125 397.210938 383.578125 372.222656 C 383.578125 347.234375 363.25 326.90625 338.261719 326.90625 Z M 196.476562 186.902344 C 184.3125 186.902344 174.40625 196.8125 174.40625 208.976562 L 174.40625 487.78125 L 635.488281 487.78125 L 635.488281 208.976562 C 635.488281 196.800781 625.589844 186.902344 613.414062 186.902344 Z M 174.40625 501.117188 L 174.40625 538.222656 C 174.40625 550.394531 184.304688 560.292969 196.476562 560.292969 L 613.414062 560.292969 C 625.585938 560.292969 635.484375 550.394531 635.484375 538.222656 L 635.484375 501.117188 L 174.402344 501.117188 Z M 174.40625 501.117188 " fill-opacity="1" fill-rule="evenodd"/><path fill="#99a4ac" d="M 527.984375 313.519531 C 530.621094 311.863281 534.050781 312.242188 536.25 314.445312 L 541.480469 319.675781 L 548.808594 312.347656 L 543.578125 307.117188 C 541.378906 304.917969 540.996094 301.480469 542.652344 298.847656 C 545.464844 294.382812 547.484375 289.523438 548.644531 284.386719 C 549.332031 281.347656 552.039062 279.195312 555.152344 279.195312 L 562.546875 279.195312 L 562.546875 268.832031 L 555.152344 268.832031 C 552.039062 268.832031 549.339844 266.679688 548.644531 263.640625 C 547.484375 258.515625 545.464844 253.644531 542.652344 249.179688 C 540.996094 246.539062 541.378906 243.109375 543.578125 240.910156 L 548.808594 235.679688 L 541.480469 228.351562 L 536.25 233.582031 C 534.050781 235.785156 530.613281 236.164062 527.984375 234.507812 C 523.523438 231.695312 518.65625 229.675781 513.53125 228.515625 C 510.492188 227.828125 508.339844 225.125 508.339844 222.007812 L 508.339844 214.617188 L 497.972656 214.617188 L 497.972656 222.007812 C 497.972656 225.125 495.820312 227.820312 492.78125 228.515625 C 487.65625 229.675781 482.789062 231.699219 478.320312 234.507812 C 475.683594 236.164062 472.253906 235.785156 470.050781 233.582031 L 464.820312 228.351562 L 457.496094 235.679688 L 462.726562 240.910156 C 464.925781 243.109375 465.308594 246.550781 463.648438 249.179688 C 460.839844 253.644531 458.820312 258.503906 457.660156 263.640625 C 456.972656 266.679688 454.265625 268.832031 451.152344 268.832031 L 443.757812 268.832031 L 443.757812 279.195312 L 451.152344 279.195312 C 454.265625 279.195312 456.960938 281.347656 457.660156 284.386719 C 458.820312 289.515625 460.839844 294.382812 463.648438 298.839844 C 465.308594 301.480469 464.925781 304.910156 462.726562 307.109375 L 457.496094 312.339844 L 464.820312 319.664062 L 470.050781 314.433594 C 472.253906 312.234375 475.691406 311.851562 478.320312 313.511719 C 482.789062 316.320312 487.648438 318.339844 492.78125 319.503906 C 495.820312 320.1875 497.972656 322.894531 497.972656 326.007812 L 497.972656 333.410156 L 508.339844 333.410156 L 508.339844 326.019531 C 508.339844 322.902344 510.492188 320.207031 513.53125 319.511719 C 518.65625 318.351562 523.523438 316.332031 527.984375 313.519531 Z M 503.15625 232.164062 C 526.238281 232.164062 545.015625 250.941406 545.015625 274.023438 C 545.015625 297.097656 526.238281 315.882812 503.15625 315.882812 C 480.074219 315.882812 461.296875 297.105469 461.296875 274.023438 C 461.296875 250.941406 480.074219 232.164062 503.15625 232.164062 Z M 503.15625 232.164062 " fill-opacity="1" fill-rule="evenodd"/><path fill="#f1f1f1" d="M 503.15625 302.535156 C 518.882812 302.535156 531.679688 289.742188 531.679688 274.011719 C 531.679688 258.285156 518.882812 245.492188 503.15625 245.492188 C 487.429688 245.492188 474.632812 258.285156 474.632812 274.011719 C 474.632812 289.742188 487.429688 302.535156 503.15625 302.535156 Z M 503.15625 302.535156 " fill-opacity="1" fill-rule="evenodd"/><path fill="#f1f1f1" d="M 383.578125 372.222656 C 383.578125 347.238281 363.25 326.90625 338.261719 326.90625 C 313.273438 326.90625 292.945312 347.238281 292.945312 372.222656 C 292.945312 397.210938 313.273438 417.542969 338.261719 417.542969 C 363.25 417.542969 383.578125 397.210938 383.578125 372.222656 Z M 383.578125 372.222656 " fill-opacity="1" fill-rule="evenodd"/><path fill="#99a4ac" d="M 338.261719 313.570312 C 370.601562 313.570312 396.914062 339.882812 396.914062 372.222656 C 396.914062 404.566406 370.601562 430.878906 338.261719 430.878906 C 305.917969 430.878906 279.605469 404.566406 279.605469 372.222656 C 279.605469 339.882812 305.917969 313.570312 338.261719 313.570312 Z M 376.632812 433.257812 C 379.273438 431.601562 382.703125 431.984375 384.902344 434.183594 L 394.878906 444.15625 L 410.195312 428.839844 L 400.222656 418.863281 C 398.019531 416.664062 397.628906 413.226562 399.296875 410.597656 C 403.640625 403.699219 406.765625 396.183594 408.558594 388.246094 C 409.242188 385.207031 411.949219 383.054688 415.0625 383.054688 L 429.164062 383.054688 L 429.164062 361.382812 L 415.0625 361.382812 C 411.949219 361.382812 409.253906 359.230469 408.558594 356.191406 C 406.757812 348.265625 403.640625 340.746094 399.289062 333.839844 C 397.628906 331.203125 398.011719 327.773438 400.210938 325.570312 L 410.1875 315.597656 L 394.867188 300.277344 L 384.894531 310.253906 C 382.691406 312.453125 379.253906 312.84375 376.625 311.175781 C 369.726562 306.832031 362.210938 303.71875 354.273438 301.917969 C 351.234375 301.230469 349.082031 298.527344 349.082031 295.410156 L 349.082031 281.3125 L 327.410156 281.3125 L 327.410156 295.410156 C 327.410156 298.527344 325.257812 301.222656 322.21875 301.917969 C 314.292969 303.71875 306.777344 306.832031 299.867188 311.175781 C 297.230469 312.835938 293.800781 312.453125 291.601562 310.253906 L 281.625 300.277344 L 266.308594 315.597656 L 276.28125 325.570312 C 278.480469 327.773438 278.871094 331.210938 277.207031 333.839844 C 272.863281 340.738281 269.738281 348.265625 267.9375 356.191406 C 267.25 359.230469 264.542969 361.382812 261.429688 361.382812 L 247.332031 361.382812 L 247.332031 383.046875 L 261.429688 383.046875 C 264.546875 383.046875 267.242188 385.199219 267.9375 388.238281 C 269.738281 396.164062 272.851562 403.679688 277.207031 410.585938 C 278.863281 413.226562 278.480469 416.65625 276.28125 418.855469 L 266.308594 428.828125 L 281.625 444.148438 L 291.601562 434.175781 C 293.800781 431.972656 297.238281 431.59375 299.871094 433.25 C 306.765625 437.59375 314.28125 440.710938 322.21875 442.511719 C 325.257812 443.195312 327.410156 445.902344 327.410156 449.015625 L 327.410156 463.132812 L 349.09375 463.132812 L 349.09375 449.035156 C 349.09375 445.921875 351.246094 443.222656 354.285156 442.527344 C 362.210938 440.726562 369.726562 437.613281 376.632812 433.257812 Z M 376.632812 433.257812 " fill-opacity="1" fill-rule="evenodd"/><path fill="#d9f2f2" d="M 435.839844 348.074219 C 439.527344 348.074219 442.511719 351.054688 442.511719 354.742188 L 442.511719 389.75 C 442.511719 393.4375 439.527344 396.421875 435.839844 396.421875 L 420.226562 396.421875 C 418.523438 402.210938 416.207031 407.792969 413.3125 413.101562 L 424.363281 424.152344 C 426.964844 426.753906 426.964844 430.980469 424.363281 433.582031 L 399.613281 458.332031 C 397.046875 460.898438 392.746094 460.898438 390.179688 458.332031 L 379.132812 447.28125 C 373.824219 450.179688 368.242188 452.492188 362.441406 454.199219 L 362.441406 469.8125 C 362.429688 473.480469 359.449219 476.472656 355.761719 476.472656 L 320.761719 476.472656 C 317.074219 476.472656 314.09375 473.488281 314.09375 469.800781 L 314.09375 454.179688 C 308.300781 452.472656 302.71875 450.160156 297.402344 447.261719 L 286.351562 458.3125 C 283.785156 460.878906 279.488281 460.878906 276.921875 458.3125 L 252.171875 433.5625 C 249.570312 430.964844 249.570312 426.734375 252.171875 424.132812 L 263.222656 413.082031 C 260.324219 407.777344 258.011719 402.191406 256.304688 396.402344 L 240.691406 396.402344 C 237.003906 396.402344 234.023438 393.417969 234.023438 389.730469 L 234.023438 354.730469 C 234.023438 351.046875 237.003906 348.0625 240.691406 348.0625 L 256.316406 348.0625 C 258.019531 342.273438 260.335938 336.6875 263.230469 331.382812 L 252.179688 320.332031 C 249.613281 317.765625 249.613281 313.46875 252.179688 310.902344 L 276.929688 286.152344 C 279.53125 283.550781 283.761719 283.550781 286.363281 286.152344 L 297.414062 297.203125 C 302.71875 294.304688 308.300781 291.992188 314.09375 290.285156 L 314.09375 274.664062 C 314.09375 270.976562 317.074219 267.992188 320.761719 267.992188 L 355.773438 267.992188 C 359.457031 267.992188 362.441406 270.976562 362.441406 274.664062 L 362.441406 290.285156 C 368.230469 291.992188 373.816406 294.304688 379.132812 297.203125 L 390.179688 286.152344 C 392.75 283.585938 397.046875 283.585938 399.613281 286.152344 L 424.363281 310.902344 C 426.964844 313.5 426.964844 317.730469 424.363281 320.332031 L 413.3125 331.382812 C 416.207031 336.6875 418.523438 342.273438 420.226562 348.074219 Z M 514.996094 346.75 L 491.296875 346.75 C 487.609375 346.75 484.625 343.765625 484.625 340.082031 L 484.625 331.097656 C 481.617188 330.125 478.699219 328.914062 475.882812 327.46875 L 469.527344 333.820312 C 466.925781 336.421875 462.695312 336.421875 460.097656 333.820312 L 443.339844 317.0625 C 440.738281 314.464844 440.738281 310.234375 443.339844 307.632812 L 449.695312 301.277344 C 448.253906 298.457031 447.046875 295.542969 446.0625 292.535156 L 437.082031 292.535156 C 433.394531 292.535156 430.410156 289.550781 430.410156 285.863281 L 430.410156 262.164062 C 430.410156 258.476562 433.394531 255.496094 437.082031 255.496094 L 446.0625 255.496094 C 447.035156 252.484375 448.246094 249.570312 449.695312 246.75 L 443.339844 240.394531 C 440.738281 237.792969 440.738281 233.566406 443.339844 230.964844 L 460.097656 214.207031 C 462.664062 211.640625 466.960938 211.640625 469.527344 214.207031 L 475.882812 220.5625 C 478.703125 219.121094 481.617188 217.914062 484.625 216.929688 L 484.625 207.949219 C 484.625 204.261719 487.609375 201.277344 491.296875 201.277344 L 514.996094 201.28125 C 518.683594 201.28125 521.667969 204.261719 521.667969 207.949219 L 521.667969 216.933594 C 524.675781 217.902344 527.589844 219.113281 530.410156 220.550781 L 536.765625 214.199219 C 539.332031 211.628906 543.628906 211.628906 546.195312 214.199219 L 562.953125 230.953125 C 565.554688 233.554688 565.554688 237.785156 562.953125 240.386719 L 556.597656 246.738281 C 558.039062 249.558594 559.246094 252.476562 560.230469 255.484375 L 569.210938 255.484375 C 572.898438 255.484375 575.882812 258.46875 575.882812 262.152344 L 575.882812 285.863281 C 575.882812 289.550781 572.898438 292.535156 569.210938 292.535156 L 560.230469 292.535156 C 559.257812 295.542969 558.046875 298.460938 556.609375 301.277344 L 562.964844 307.632812 C 565.5625 310.234375 565.5625 314.464844 562.964844 317.0625 L 546.207031 333.820312 C 543.605469 336.421875 539.375 336.421875 536.773438 333.820312 L 530.421875 327.46875 C 527.601562 328.90625 524.6875 330.117188 521.675781 331.097656 L 521.675781 340.082031 C 521.667969 343.757812 518.683594 346.75 514.996094 346.75 Z M 174.40625 487.777344 L 635.488281 487.78125 L 635.488281 208.976562 C 635.488281 196.800781 625.589844 186.902344 613.414062 186.902344 L 196.480469 186.902344 C 184.3125 186.902344 174.40625 196.8125 174.40625 208.976562 L 174.40625 487.78125 Z M 174.40625 487.777344 " fill-opacity="1" fill-rule="evenodd"/><path fill="#99a4ac" d="M 635.488281 501.117188 L 174.40625 501.117188 L 174.40625 538.222656 C 174.40625 550.398438 184.304688 560.296875 196.476562 560.296875 L 613.414062 560.296875 C 625.589844 560.296875 635.484375 550.398438 635.484375 538.222656 L 635.484375 501.117188 Z M 433.554688 537.375 L 376.328125 537.375 C 372.640625 537.375 369.660156 534.394531 369.660156 530.707031 C 369.660156 527.019531 372.640625 524.039062 376.328125 524.039062 L 433.554688 524.039062 C 437.242188 524.039062 440.222656 527.019531 440.222656 530.707031 C 440.222656 534.394531 437.242188 537.375 433.554688 537.375 Z M 433.554688 537.375 " fill-opacity="1" fill-rule="evenodd"/><path fill="#99a4ac" d="M 367.191406 573.632812 L 442.703125 573.632812 L 442.703125 622.988281 L 367.191406 622.988281 Z M 367.191406 573.632812 " fill-opacity="1" fill-rule="evenodd"/></svg>